<mxfile host="app.diagrams.net" agent="Mozilla/5.0 (Macintosh; Intel Mac OS X 10_15_7) AppleWebKit/605.1.15 (KHTML, like Gecko) Version/18.5 Safari/605.1.15" version="27.0.9" pages="2">
  <diagram name="Page-1" id="7euf_QhKnWaaRF4dz8Pr">
    <mxGraphModel dx="2425" dy="2468" grid="1" gridSize="10" guides="1" tooltips="1" connect="1" arrows="1" fold="1" page="1" pageScale="1" pageWidth="850" pageHeight="1100" math="0" shadow="0">
      <root>
        <mxCell id="0" />
        <mxCell id="1" parent="0" />
        <mxCell id="_d6EgIDGCibsYGr0F3GB-4" value="&lt;font style=&quot;font-size: 18px;&quot;&gt;&lt;b&gt;PC&lt;/b&gt;&lt;/font&gt;" style="rounded=0;whiteSpace=wrap;html=1;" parent="1" vertex="1">
          <mxGeometry x="310" y="-100" width="60" height="140" as="geometry" />
        </mxCell>
        <mxCell id="YxsJKSqOHtmqawKpdgPl-7" style="edgeStyle=orthogonalEdgeStyle;rounded=0;orthogonalLoop=1;jettySize=auto;html=1;endArrow=classic;startFill=0;exitX=0.5;exitY=1;exitDx=0;exitDy=0;entryX=0.759;entryY=0.002;entryDx=0;entryDy=0;entryPerimeter=0;startArrow=none;endFill=1;" parent="1" source="YxsJKSqOHtmqawKpdgPl-18" target="YxsJKSqOHtmqawKpdgPl-23" edge="1">
          <mxGeometry relative="1" as="geometry">
            <mxPoint x="900" y="-340" as="targetPoint" />
            <mxPoint x="590" y="-275" as="sourcePoint" />
            <Array as="points">
              <mxPoint x="750" y="-275" />
              <mxPoint x="750" y="-355" />
            </Array>
          </mxGeometry>
        </mxCell>
        <mxCell id="YxsJKSqOHtmqawKpdgPl-4" value="&lt;div style=&quot;text-align: justify;&quot;&gt;&lt;span style=&quot;font-size: 14px;&quot;&gt;&lt;b&gt;&lt;br&gt;&lt;/b&gt;&lt;/span&gt;&lt;/div&gt;&lt;div style=&quot;text-align: justify;&quot;&gt;&lt;span style=&quot;font-size: 14px;&quot;&gt;&lt;b&gt;&lt;br&gt;&lt;/b&gt;&lt;/span&gt;&lt;/div&gt;&lt;div style=&quot;text-align: justify;&quot;&gt;&lt;span style=&quot;font-size: 14px;&quot;&gt;&lt;b&gt;&lt;br&gt;&lt;/b&gt;&lt;/span&gt;&lt;/div&gt;&lt;div style=&quot;text-align: justify;&quot;&gt;&lt;span style=&quot;font-size: 14px;&quot;&gt;&lt;b&gt;&lt;br&gt;&lt;/b&gt;&lt;/span&gt;&lt;/div&gt;&lt;div style=&quot;text-align: justify;&quot;&gt;&lt;span style=&quot;font-size: 14px;&quot;&gt;&lt;b&gt;&lt;br&gt;&lt;/b&gt;&lt;/span&gt;&lt;/div&gt;&lt;div style=&quot;text-align: justify;&quot;&gt;&lt;span style=&quot;font-size: 14px;&quot;&gt;&lt;b&gt;&lt;br&gt;&lt;/b&gt;&lt;/span&gt;&lt;/div&gt;&lt;div style=&quot;text-align: justify;&quot;&gt;&lt;span style=&quot;font-size: 14px;&quot;&gt;&lt;b&gt;&lt;br&gt;&lt;/b&gt;&lt;/span&gt;&lt;/div&gt;&lt;div style=&quot;text-align: justify;&quot;&gt;&lt;span style=&quot;font-size: 14px;&quot;&gt;&lt;b&gt;&lt;br&gt;&lt;/b&gt;&lt;/span&gt;&lt;/div&gt;&lt;div style=&quot;text-align: justify;&quot;&gt;&lt;span style=&quot;font-size: 14px;&quot;&gt;&lt;b&gt;&lt;br&gt;&lt;/b&gt;&lt;/span&gt;&lt;/div&gt;&lt;div style=&quot;text-align: justify;&quot;&gt;&lt;span style=&quot;font-size: 14px;&quot;&gt;&lt;b&gt;&lt;br&gt;&lt;/b&gt;&lt;/span&gt;&lt;/div&gt;&lt;div style=&quot;text-align: justify;&quot;&gt;&lt;span style=&quot;font-size: 14px;&quot;&gt;&lt;b&gt;&lt;br&gt;&lt;/b&gt;&lt;/span&gt;&lt;/div&gt;&lt;div style=&quot;text-align: justify;&quot;&gt;&lt;span style=&quot;font-size: 14px;&quot;&gt;&lt;b&gt;&lt;br&gt;&lt;/b&gt;&lt;/span&gt;&lt;/div&gt;&lt;div style=&quot;text-align: justify;&quot;&gt;&lt;span style=&quot;font-size: 14px;&quot;&gt;&lt;b&gt;&lt;br&gt;&lt;/b&gt;&lt;/span&gt;&lt;/div&gt;&lt;div style=&quot;text-align: justify;&quot;&gt;&lt;span style=&quot;font-size: 14px;&quot;&gt;&lt;b&gt;&lt;br&gt;&lt;/b&gt;&lt;/span&gt;&lt;/div&gt;&lt;div style=&quot;text-align: justify;&quot;&gt;&lt;span style=&quot;font-size: 14px;&quot;&gt;&lt;b&gt;&lt;br&gt;&lt;/b&gt;&lt;/span&gt;&lt;/div&gt;&lt;div style=&quot;text-align: justify;&quot;&gt;&lt;span style=&quot;font-size: 14px;&quot;&gt;&lt;b&gt;&lt;br&gt;&lt;/b&gt;&lt;/span&gt;&lt;/div&gt;&lt;div style=&quot;text-align: justify;&quot;&gt;&lt;span style=&quot;font-size: 14px;&quot;&gt;&lt;b&gt;&lt;br&gt;&lt;/b&gt;&lt;/span&gt;&lt;/div&gt;&lt;div style=&quot;text-align: justify;&quot;&gt;&lt;span style=&quot;font-size: 14px;&quot;&gt;&lt;b&gt;Memory&lt;/b&gt;&lt;/span&gt;&lt;/div&gt;" style="rounded=0;whiteSpace=wrap;html=1;" parent="1" vertex="1">
          <mxGeometry x="490" y="-60" width="110" height="310" as="geometry" />
        </mxCell>
        <mxCell id="YxsJKSqOHtmqawKpdgPl-5" value="" style="endArrow=classic;html=1;rounded=0;startArrow=oval;startFill=1;entryX=0.75;entryY=0;entryDx=0;entryDy=0;edgeStyle=orthogonalEdgeStyle;" parent="1" target="YxsJKSqOHtmqawKpdgPl-18" edge="1">
          <mxGeometry width="50" height="50" relative="1" as="geometry">
            <mxPoint x="380" y="-30" as="sourcePoint" />
            <mxPoint x="519" y="-263" as="targetPoint" />
            <Array as="points">
              <mxPoint x="380" y="-300" />
            </Array>
          </mxGeometry>
        </mxCell>
        <mxCell id="YxsJKSqOHtmqawKpdgPl-12" value="" style="endArrow=classic;html=1;rounded=0;startArrow=oval;startFill=1;entryX=0.75;entryY=0;entryDx=0;entryDy=0;" parent="1" target="YxsJKSqOHtmqawKpdgPl-20" edge="1">
          <mxGeometry width="50" height="50" relative="1" as="geometry">
            <mxPoint x="750" y="-318" as="sourcePoint" />
            <mxPoint x="909.5500000000001" y="-289" as="targetPoint" />
          </mxGeometry>
        </mxCell>
        <mxCell id="YxsJKSqOHtmqawKpdgPl-18" value="" style="verticalLabelPosition=middle;verticalAlign=middle;html=1;shape=trapezoid;perimeter=trapezoidPerimeter;whiteSpace=wrap;size=0.23;arcSize=10;flipV=1;labelPosition=center;align=center;rotation=-90;" parent="1" vertex="1">
          <mxGeometry x="510" y="-300" width="100" height="50" as="geometry" />
        </mxCell>
        <mxCell id="Msp46878IymJfc1_vW69-46" style="edgeStyle=orthogonalEdgeStyle;rounded=0;orthogonalLoop=1;jettySize=auto;html=1;exitX=0.5;exitY=1;exitDx=0;exitDy=0;entryX=0.138;entryY=0.96;entryDx=0;entryDy=0;entryPerimeter=0;" parent="1" source="YxsJKSqOHtmqawKpdgPl-20" target="YxsJKSqOHtmqawKpdgPl-23" edge="1">
          <mxGeometry relative="1" as="geometry">
            <mxPoint x="1163.764710370232" y="-293.4705882352941" as="targetPoint" />
          </mxGeometry>
        </mxCell>
        <mxCell id="YxsJKSqOHtmqawKpdgPl-20" value="" style="verticalLabelPosition=middle;verticalAlign=middle;html=1;shape=trapezoid;perimeter=trapezoidPerimeter;whiteSpace=wrap;size=0.23;arcSize=10;flipV=1;labelPosition=center;align=center;rotation=-90;" parent="1" vertex="1">
          <mxGeometry x="1030.38" y="-323.5" width="100" height="60" as="geometry" />
        </mxCell>
        <mxCell id="-fxPJHpkxnDJvihEiJ0s-1" style="edgeStyle=orthogonalEdgeStyle;rounded=0;orthogonalLoop=1;jettySize=auto;html=1;exitX=0.5;exitY=1;exitDx=0;exitDy=0;exitPerimeter=0;entryX=0;entryY=0.5;entryDx=0;entryDy=0;" parent="1" source="YxsJKSqOHtmqawKpdgPl-23" target="_d6EgIDGCibsYGr0F3GB-4" edge="1">
          <mxGeometry relative="1" as="geometry">
            <mxPoint x="350" y="-40" as="targetPoint" />
            <Array as="points">
              <mxPoint x="1250" y="-329" />
              <mxPoint x="1310" y="-329" />
              <mxPoint x="1310" y="-400" />
              <mxPoint x="290" y="-400" />
              <mxPoint x="290" y="-30" />
            </Array>
          </mxGeometry>
        </mxCell>
        <mxCell id="YxsJKSqOHtmqawKpdgPl-23" value="Mux" style="strokeWidth=2;html=1;shape=mxgraph.flowchart.terminator;whiteSpace=wrap;" parent="1" vertex="1">
          <mxGeometry x="1200.9299999999998" y="-367.8" width="97.5" height="76.87" as="geometry" />
        </mxCell>
        <mxCell id="YxsJKSqOHtmqawKpdgPl-24" value="&lt;span style=&quot;&quot;&gt;&lt;b&gt;&lt;font style=&quot;font-size: 15px;&quot;&gt;Control&lt;/font&gt;&lt;/b&gt;&lt;/span&gt;&lt;div&gt;&lt;span style=&quot;font-size: 15px;&quot;&gt;&lt;b&gt;Unit&lt;/b&gt;&lt;/span&gt;&lt;/div&gt;" style="strokeWidth=2;html=1;shape=mxgraph.flowchart.start_2;whiteSpace=wrap;strokeColor=#0066CC;fontColor=#0066CC;" parent="1" vertex="1">
          <mxGeometry x="740" y="-250" width="70" height="150.5" as="geometry" />
        </mxCell>
        <mxCell id="YxsJKSqOHtmqawKpdgPl-26" value="" style="rounded=0;whiteSpace=wrap;html=1;" parent="1" vertex="1">
          <mxGeometry x="780" y="-80" width="140" height="170" as="geometry" />
        </mxCell>
        <mxCell id="YxsJKSqOHtmqawKpdgPl-43" style="edgeStyle=orthogonalEdgeStyle;rounded=0;orthogonalLoop=1;jettySize=auto;html=1;exitX=1;exitY=0.5;exitDx=0;exitDy=0;endArrow=oval;endFill=1;" parent="1" edge="1">
          <mxGeometry relative="1" as="geometry">
            <mxPoint x="630" y="6" as="targetPoint" />
            <mxPoint x="600" y="6.25" as="sourcePoint" />
            <Array as="points">
              <mxPoint x="620" y="6" />
              <mxPoint x="630" y="6" />
            </Array>
          </mxGeometry>
        </mxCell>
        <mxCell id="YxsJKSqOHtmqawKpdgPl-31" value="&lt;font style=&quot;font-size: 15px;&quot;&gt;&lt;b&gt;Add&lt;/b&gt;&lt;/font&gt;" style="text;strokeColor=none;fillColor=none;align=left;verticalAlign=middle;spacingLeft=4;spacingRight=4;overflow=hidden;points=[[0,0.5],[1,0.5]];portConstraint=eastwest;rotatable=0;whiteSpace=wrap;html=1;" parent="1" vertex="1">
          <mxGeometry x="540" y="-290" width="40" height="30" as="geometry" />
        </mxCell>
        <mxCell id="YxsJKSqOHtmqawKpdgPl-32" value="" style="endArrow=classic;html=1;rounded=0;entryX=0.25;entryY=0;entryDx=0;entryDy=0;" parent="1" target="YxsJKSqOHtmqawKpdgPl-18" edge="1">
          <mxGeometry width="50" height="50" relative="1" as="geometry">
            <mxPoint x="500" y="-250" as="sourcePoint" />
            <mxPoint x="510" y="-130" as="targetPoint" />
          </mxGeometry>
        </mxCell>
        <mxCell id="YxsJKSqOHtmqawKpdgPl-34" value="4" style="text;strokeColor=none;fillColor=none;align=left;verticalAlign=top;spacingLeft=4;spacingRight=4;overflow=hidden;points=[[0,0.5],[1,0.5]];portConstraint=eastwest;rotatable=1;html=1;movable=1;resizable=1;deletable=1;editable=1;locked=0;connectable=1;rounded=0;horizontal=1;" parent="1" vertex="1">
          <mxGeometry x="483" y="-264" width="25" height="30" as="geometry" />
        </mxCell>
        <mxCell id="YxsJKSqOHtmqawKpdgPl-37" value="0" style="text;strokeColor=none;fillColor=none;align=left;verticalAlign=middle;spacingLeft=4;spacingRight=4;overflow=hidden;points=[[0,0.5],[1,0.5]];portConstraint=eastwest;rotatable=0;whiteSpace=wrap;html=1;" parent="1" vertex="1">
          <mxGeometry x="1213.62" y="-367.8" width="20" height="30" as="geometry" />
        </mxCell>
        <mxCell id="YxsJKSqOHtmqawKpdgPl-38" value="1" style="text;strokeColor=none;fillColor=none;align=left;verticalAlign=middle;spacingLeft=4;spacingRight=4;overflow=hidden;points=[[0,0.5],[1,0.5]];portConstraint=eastwest;rotatable=0;whiteSpace=wrap;html=1;" parent="1" vertex="1">
          <mxGeometry x="1213.62" y="-323.5" width="20" height="30" as="geometry" />
        </mxCell>
        <mxCell id="YxsJKSqOHtmqawKpdgPl-41" value="&lt;b&gt;Add&lt;/b&gt;" style="text;strokeColor=none;fillColor=none;align=left;verticalAlign=middle;spacingLeft=4;spacingRight=4;overflow=hidden;points=[[0,0.5],[1,0.5]];portConstraint=eastwest;rotatable=0;whiteSpace=wrap;html=1;fontSize=11;" parent="1" vertex="1">
          <mxGeometry x="1049.38" y="-307.5" width="35" height="24" as="geometry" />
        </mxCell>
        <mxCell id="YxsJKSqOHtmqawKpdgPl-42" value="Sum" style="text;strokeColor=none;fillColor=none;align=center;verticalAlign=middle;spacingLeft=4;spacingRight=4;overflow=hidden;points=[[0,0.5],[1,0.5]];portConstraint=eastwest;rotatable=0;whiteSpace=wrap;html=1;fontSize=12;" parent="1" vertex="1">
          <mxGeometry x="1075.35" y="-310.5" width="40" height="30" as="geometry" />
        </mxCell>
        <mxCell id="Msp46878IymJfc1_vW69-7" value="" style="endArrow=classic;html=1;rounded=0;endFill=1;" parent="1" edge="1">
          <mxGeometry width="50" height="50" relative="1" as="geometry">
            <mxPoint x="630" y="4" as="sourcePoint" />
            <mxPoint x="739" y="-171" as="targetPoint" />
            <Array as="points">
              <mxPoint x="630" y="-170" />
            </Array>
          </mxGeometry>
        </mxCell>
        <mxCell id="Msp46878IymJfc1_vW69-10" value="Instruction [6-0]" style="text;html=1;align=left;verticalAlign=middle;resizable=0;points=[];autosize=1;strokeColor=none;fillColor=none;" parent="1" vertex="1">
          <mxGeometry x="632" y="-200" width="110" height="30" as="geometry" />
        </mxCell>
        <mxCell id="Msp46878IymJfc1_vW69-12" value="Read&lt;div&gt;register 1&lt;/div&gt;" style="text;html=1;align=left;verticalAlign=middle;whiteSpace=wrap;rounded=0;fontSize=13;" parent="1" vertex="1">
          <mxGeometry x="783" y="-73" width="60" height="30" as="geometry" />
        </mxCell>
        <mxCell id="Msp46878IymJfc1_vW69-13" value="Read&lt;div&gt;register 2&lt;/div&gt;" style="text;html=1;align=left;verticalAlign=middle;whiteSpace=wrap;rounded=0;fontSize=13;" parent="1" vertex="1">
          <mxGeometry x="783" y="-35.55000000000001" width="60" height="30" as="geometry" />
        </mxCell>
        <mxCell id="Msp46878IymJfc1_vW69-14" value="Write&lt;div&gt;register&lt;/div&gt;" style="text;html=1;align=left;verticalAlign=middle;whiteSpace=wrap;rounded=0;fontSize=13;" parent="1" vertex="1">
          <mxGeometry x="783" y="17" width="60" height="30" as="geometry" />
        </mxCell>
        <mxCell id="Msp46878IymJfc1_vW69-15" value="Write&lt;div&gt;data&lt;/div&gt;" style="text;html=1;align=left;verticalAlign=middle;whiteSpace=wrap;rounded=0;fontSize=13;" parent="1" vertex="1">
          <mxGeometry x="783" y="55.68000000000001" width="60" height="30" as="geometry" />
        </mxCell>
        <mxCell id="Msp46878IymJfc1_vW69-16" value="" style="edgeStyle=none;orthogonalLoop=1;jettySize=auto;html=1;rounded=0;entryX=0;entryY=0.125;entryDx=0;entryDy=0;entryPerimeter=0;startArrow=oval;startFill=1;" parent="1" target="YxsJKSqOHtmqawKpdgPl-26" edge="1">
          <mxGeometry width="100" relative="1" as="geometry">
            <mxPoint x="630" y="-60" as="sourcePoint" />
            <mxPoint x="750" y="-60" as="targetPoint" />
            <Array as="points" />
          </mxGeometry>
        </mxCell>
        <mxCell id="Msp46878IymJfc1_vW69-17" value="" style="edgeStyle=none;orthogonalLoop=1;jettySize=auto;html=1;rounded=0;entryX=0;entryY=0.125;entryDx=0;entryDy=0;entryPerimeter=0;startArrow=oval;startFill=1;" parent="1" edge="1">
          <mxGeometry width="100" relative="1" as="geometry">
            <mxPoint x="630" y="-20.839999999999975" as="sourcePoint" />
            <mxPoint x="780" y="-20.839999999999975" as="targetPoint" />
            <Array as="points" />
          </mxGeometry>
        </mxCell>
        <mxCell id="Msp46878IymJfc1_vW69-18" value="" style="endArrow=none;html=1;rounded=0;exitX=0;exitY=0.5;exitDx=0;exitDy=0;endFill=1;startFill=1;startArrow=classic;" parent="1" source="Msp46878IymJfc1_vW69-31" edge="1">
          <mxGeometry width="50" height="50" relative="1" as="geometry">
            <mxPoint x="650" y="160" as="sourcePoint" />
            <mxPoint x="630" y="10" as="targetPoint" />
            <Array as="points">
              <mxPoint x="630" y="160" />
            </Array>
          </mxGeometry>
        </mxCell>
        <mxCell id="Msp46878IymJfc1_vW69-20" value="" style="edgeStyle=none;orthogonalLoop=1;jettySize=auto;html=1;rounded=0;startArrow=oval;startFill=1;entryX=0;entryY=0.649;entryDx=0;entryDy=0;entryPerimeter=0;" parent="1" target="YxsJKSqOHtmqawKpdgPl-26" edge="1">
          <mxGeometry width="100" relative="1" as="geometry">
            <mxPoint x="630" y="30.379999999999995" as="sourcePoint" />
            <mxPoint x="726" y="29.379999999999995" as="targetPoint" />
            <Array as="points" />
          </mxGeometry>
        </mxCell>
        <mxCell id="Msp46878IymJfc1_vW69-26" value="Instruction [19-15]" style="text;html=1;align=left;verticalAlign=middle;resizable=0;points=[];autosize=1;strokeColor=none;fillColor=none;" parent="1" vertex="1">
          <mxGeometry x="632" y="-90" width="120" height="30" as="geometry" />
        </mxCell>
        <mxCell id="Msp46878IymJfc1_vW69-28" value="Instruction [24-20]" style="text;html=1;align=left;verticalAlign=middle;resizable=0;points=[];autosize=1;strokeColor=none;fillColor=none;" parent="1" vertex="1">
          <mxGeometry x="632" y="-50" width="120" height="30" as="geometry" />
        </mxCell>
        <mxCell id="Msp46878IymJfc1_vW69-29" value="Instruction [11-7]" style="text;html=1;align=left;verticalAlign=middle;resizable=0;points=[];autosize=1;strokeColor=none;fillColor=none;fontSize=12;" parent="1" vertex="1">
          <mxGeometry x="632" y="2.3500000000000227" width="110" height="30" as="geometry" />
        </mxCell>
        <mxCell id="Msp46878IymJfc1_vW69-37" style="edgeStyle=orthogonalEdgeStyle;rounded=0;orthogonalLoop=1;jettySize=auto;html=1;exitX=1;exitY=0.5;exitDx=0;exitDy=0;entryX=0;entryY=0.5;entryDx=0;entryDy=0;" parent="1" source="Msp46878IymJfc1_vW69-31" target="Msp46878IymJfc1_vW69-47" edge="1">
          <mxGeometry relative="1" as="geometry">
            <mxPoint x="950" y="-230" as="targetPoint" />
            <Array as="points">
              <mxPoint x="970" y="160" />
              <mxPoint x="970" y="-258" />
            </Array>
          </mxGeometry>
        </mxCell>
        <mxCell id="Msp46878IymJfc1_vW69-31" value="&lt;font size=&quot;2&quot;&gt;&lt;b&gt;Imm&lt;/b&gt;&lt;/font&gt;&lt;div&gt;&lt;font size=&quot;2&quot;&gt;&lt;b&gt;Gen&lt;/b&gt;&lt;/font&gt;&lt;/div&gt;" style="ellipse;whiteSpace=wrap;html=1;" parent="1" vertex="1">
          <mxGeometry x="830" y="120" width="51" height="80" as="geometry" />
        </mxCell>
        <mxCell id="Msp46878IymJfc1_vW69-33" value="" style="edgeStyle=none;orthogonalLoop=1;jettySize=auto;html=1;rounded=0;startArrow=oval;startFill=1;entryX=0;entryY=0.5;entryDx=0;entryDy=0;" parent="1" target="Msp46878IymJfc1_vW69-54" edge="1">
          <mxGeometry width="100" relative="1" as="geometry">
            <mxPoint x="780" y="160" as="sourcePoint" />
            <mxPoint x="990" y="170" as="targetPoint" />
            <Array as="points">
              <mxPoint x="780" y="240" />
              <mxPoint x="990" y="240" />
              <mxPoint x="990" y="170" />
            </Array>
          </mxGeometry>
        </mxCell>
        <mxCell id="Msp46878IymJfc1_vW69-39" value="Read&lt;div&gt;data 1&lt;/div&gt;" style="text;html=1;align=right;verticalAlign=middle;whiteSpace=wrap;rounded=0;fontSize=13;" parent="1" vertex="1">
          <mxGeometry x="854" y="-45" width="60" height="30" as="geometry" />
        </mxCell>
        <mxCell id="Msp46878IymJfc1_vW69-41" value="Read&lt;div&gt;data 2&lt;/div&gt;" style="text;html=1;align=right;verticalAlign=middle;whiteSpace=wrap;rounded=0;fontSize=13;" parent="1" vertex="1">
          <mxGeometry x="854" y="7.029999999999973" width="60" height="30" as="geometry" />
        </mxCell>
        <mxCell id="Msp46878IymJfc1_vW69-42" value="&lt;b&gt;&lt;font&gt;Registers&lt;/font&gt;&lt;/b&gt;" style="text;html=1;align=center;verticalAlign=middle;whiteSpace=wrap;rounded=0;fontSize=14;" parent="1" vertex="1">
          <mxGeometry x="854" y="55.68000000000001" width="60" height="30" as="geometry" />
        </mxCell>
        <mxCell id="Msp46878IymJfc1_vW69-47" value="" style="ellipse;whiteSpace=wrap;html=1;" parent="1" vertex="1">
          <mxGeometry x="984" y="-283" width="46" height="50" as="geometry" />
        </mxCell>
        <mxCell id="Msp46878IymJfc1_vW69-50" style="edgeStyle=orthogonalEdgeStyle;rounded=0;orthogonalLoop=1;jettySize=auto;html=1;exitX=1;exitY=0.5;exitDx=0;exitDy=0;entryX=0.147;entryY=1.001;entryDx=0;entryDy=0;entryPerimeter=0;" parent="1" source="Msp46878IymJfc1_vW69-47" target="YxsJKSqOHtmqawKpdgPl-20" edge="1">
          <mxGeometry relative="1" as="geometry">
            <mxPoint x="1036" y="-258.5" as="targetPoint" />
          </mxGeometry>
        </mxCell>
        <mxCell id="Msp46878IymJfc1_vW69-51" value="&lt;b&gt;Shift&lt;/b&gt;&lt;div&gt;&lt;b&gt;left 2&lt;/b&gt;&lt;/div&gt;" style="text;html=1;align=center;verticalAlign=middle;whiteSpace=wrap;rounded=0;" parent="1" vertex="1">
          <mxGeometry x="990" y="-273" width="34" height="30" as="geometry" />
        </mxCell>
        <mxCell id="Msp46878IymJfc1_vW69-53" value="Instruction [31-0]" style="text;html=1;align=left;verticalAlign=middle;resizable=0;points=[];autosize=1;strokeColor=none;fillColor=none;" parent="1" vertex="1">
          <mxGeometry x="632" y="135" width="110" height="30" as="geometry" />
        </mxCell>
        <mxCell id="Msp46878IymJfc1_vW69-59" style="edgeStyle=orthogonalEdgeStyle;rounded=0;orthogonalLoop=1;jettySize=auto;html=1;exitX=1;exitY=0.5;exitDx=0;exitDy=0;entryX=0;entryY=0.5;entryDx=0;entryDy=0;fontColor=#0066CC;strokeColor=#0066CC;strokeWidth=1;endArrow=none;startFill=0;" parent="1" source="Msp46878IymJfc1_vW69-54" target="Msp46878IymJfc1_vW69-55" edge="1">
          <mxGeometry relative="1" as="geometry">
            <mxPoint x="1100" y="169.83333333333348" as="targetPoint" />
          </mxGeometry>
        </mxCell>
        <mxCell id="Msp46878IymJfc1_vW69-54" value="&lt;span style=&quot;color: rgb(0, 102, 204); font-weight: normal;&quot;&gt;ALU&lt;/span&gt;&lt;div&gt;&lt;span style=&quot;color: rgb(0, 102, 204); font-weight: normal;&quot;&gt;control&lt;/span&gt;&lt;/div&gt;" style="ellipse;whiteSpace=wrap;html=1;strokeColor=#0066CC;fontStyle=1" parent="1" vertex="1">
          <mxGeometry x="1016" y="140" width="50" height="60" as="geometry" />
        </mxCell>
        <mxCell id="Msp46878IymJfc1_vW69-55" value="" style="verticalLabelPosition=middle;verticalAlign=middle;html=1;shape=trapezoid;perimeter=trapezoidPerimeter;whiteSpace=wrap;size=0.23;arcSize=10;flipV=1;labelPosition=center;align=center;rotation=-90;" parent="1" vertex="1">
          <mxGeometry x="1041.9299999999998" y="-31.180000000000007" width="130.7" height="83.19" as="geometry" />
        </mxCell>
        <mxCell id="Msp46878IymJfc1_vW69-56" value="&lt;b&gt;ALU&lt;/b&gt;" style="text;html=1;align=left;verticalAlign=middle;whiteSpace=wrap;rounded=0;fontSize=16;" parent="1" vertex="1">
          <mxGeometry x="1070.9299999999998" y="-4.590000000000032" width="39" height="30" as="geometry" />
        </mxCell>
        <mxCell id="Msp46878IymJfc1_vW69-57" value="ALU&lt;div&gt;result&lt;/div&gt;" style="text;html=1;align=right;verticalAlign=middle;whiteSpace=wrap;rounded=0;fontSize=13;" parent="1" vertex="1">
          <mxGeometry x="1105.9299999999998" y="15.009999999999991" width="40" height="30" as="geometry" />
        </mxCell>
        <mxCell id="Msp46878IymJfc1_vW69-58" value="&lt;span&gt;Zero&lt;/span&gt;" style="text;html=1;align=right;verticalAlign=middle;whiteSpace=wrap;rounded=0;fontSize=13;" parent="1" vertex="1">
          <mxGeometry x="1106.9299999999998" y="-31.180000000000007" width="39" height="30" as="geometry" />
        </mxCell>
        <mxCell id="Msp46878IymJfc1_vW69-62" value="" style="endArrow=none;html=1;rounded=0;strokeColor=#0066CC;entryX=0.855;entryY=0.145;entryDx=0;entryDy=0;entryPerimeter=0;exitX=0;exitY=0.25;exitDx=0;exitDy=0;exitPerimeter=0;" parent="1" source="Msp46878IymJfc1_vW69-91" edge="1">
          <mxGeometry width="50" height="50" relative="1" as="geometry">
            <mxPoint x="1152" y="-228" as="sourcePoint" />
            <mxPoint x="803.85" y="-213.4975" as="targetPoint" />
            <Array as="points">
              <mxPoint x="1110" y="-240" />
              <mxPoint x="1110" y="-215" />
            </Array>
          </mxGeometry>
        </mxCell>
        <mxCell id="Msp46878IymJfc1_vW69-63" value="" style="endArrow=none;html=1;rounded=0;strokeColor=#0066CC;entryX=0.855;entryY=0.145;entryDx=0;entryDy=0;entryPerimeter=0;exitX=0.5;exitY=1;exitDx=0;exitDy=0;" parent="1" source="YxsJKSqOHtmqawKpdgPl-4" edge="1">
          <mxGeometry width="50" height="50" relative="1" as="geometry">
            <mxPoint x="1250" y="80" as="sourcePoint" />
            <mxPoint x="808" y="-199" as="targetPoint" />
            <Array as="points">
              <mxPoint x="545" y="520" />
              <mxPoint x="1410" y="520" />
              <mxPoint x="1410" y="-199" />
            </Array>
          </mxGeometry>
        </mxCell>
        <mxCell id="Msp46878IymJfc1_vW69-64" value="" style="endArrow=none;html=1;rounded=0;strokeColor=#0066CC;entryX=0.855;entryY=0.145;entryDx=0;entryDy=0;entryPerimeter=0;exitX=1;exitY=0.5;exitDx=0;exitDy=0;exitPerimeter=0;" parent="1" source="Msp46878IymJfc1_vW69-99" edge="1">
          <mxGeometry width="50" height="50" relative="1" as="geometry">
            <mxPoint x="1360" y="10" as="sourcePoint" />
            <mxPoint x="810" y="-184" as="targetPoint" />
            <Array as="points">
              <mxPoint x="1380" y="-180" />
            </Array>
          </mxGeometry>
        </mxCell>
        <mxCell id="Msp46878IymJfc1_vW69-65" value="" style="endArrow=none;html=1;rounded=0;strokeColor=#0066CC;entryX=0.855;entryY=0.145;entryDx=0;entryDy=0;entryPerimeter=0;strokeWidth=1;exitX=0.5;exitY=1;exitDx=0;exitDy=0;" parent="1" source="Msp46878IymJfc1_vW69-54" edge="1">
          <mxGeometry width="50" height="50" relative="1" as="geometry">
            <mxPoint x="1040" y="210" as="sourcePoint" />
            <mxPoint x="810" y="-169" as="targetPoint" />
            <Array as="points">
              <mxPoint x="1041" y="220" />
              <mxPoint x="950" y="220" />
              <mxPoint x="950" y="-169" />
            </Array>
          </mxGeometry>
        </mxCell>
        <mxCell id="Msp46878IymJfc1_vW69-66" value="" style="endArrow=none;html=1;rounded=0;strokeColor=#0066CC;entryX=0.855;entryY=0.145;entryDx=0;entryDy=0;entryPerimeter=0;exitX=1.017;exitY=0.889;exitDx=0;exitDy=0;exitPerimeter=0;edgeStyle=orthogonalEdgeStyle;" parent="1" source="YxsJKSqOHtmqawKpdgPl-4" edge="1">
          <mxGeometry width="50" height="50" relative="1" as="geometry">
            <mxPoint x="1340" y="-150" as="sourcePoint" />
            <mxPoint x="809" y="-153" as="targetPoint" />
            <Array as="points">
              <mxPoint x="670" y="216" />
              <mxPoint x="670" y="460" />
              <mxPoint x="1280" y="460" />
              <mxPoint x="1280" y="-153" />
            </Array>
          </mxGeometry>
        </mxCell>
        <mxCell id="Msp46878IymJfc1_vW69-67" value="" style="endArrow=none;html=1;rounded=0;strokeColor=#0066CC;entryX=0.855;entryY=0.145;entryDx=0;entryDy=0;entryPerimeter=0;exitX=0.5;exitY=0;exitDx=0;exitDy=0;exitPerimeter=0;edgeStyle=orthogonalEdgeStyle;" parent="1" source="Msp46878IymJfc1_vW69-78" edge="1">
          <mxGeometry width="50" height="50" relative="1" as="geometry">
            <mxPoint x="1010" y="-138" as="sourcePoint" />
            <mxPoint x="806" y="-138" as="targetPoint" />
            <Array as="points">
              <mxPoint x="1014" y="-138" />
            </Array>
          </mxGeometry>
        </mxCell>
        <mxCell id="Msp46878IymJfc1_vW69-68" value="" style="endArrow=none;html=1;rounded=0;strokeColor=#0066CC;entryX=0.855;entryY=0.145;entryDx=0;entryDy=0;entryPerimeter=0;exitX=0.429;exitY=0;exitDx=0;exitDy=0;exitPerimeter=0;" parent="1" source="YxsJKSqOHtmqawKpdgPl-26" edge="1">
          <mxGeometry width="50" height="50" relative="1" as="geometry">
            <mxPoint x="840" y="-110" as="sourcePoint" />
            <mxPoint x="799" y="-120" as="targetPoint" />
            <Array as="points">
              <mxPoint x="840" y="-120" />
            </Array>
          </mxGeometry>
        </mxCell>
        <mxCell id="Msp46878IymJfc1_vW69-70" value="&lt;span style=&quot;color: rgb(0, 102, 204);&quot;&gt;Branch&lt;/span&gt;" style="text;strokeColor=none;align=left;fillColor=none;html=1;verticalAlign=middle;whiteSpace=wrap;rounded=0;fontSize=11;" parent="1" vertex="1">
          <mxGeometry x="813" y="-227" width="46" height="14" as="geometry" />
        </mxCell>
        <mxCell id="Msp46878IymJfc1_vW69-71" value="&lt;span style=&quot;color: rgb(0, 102, 204);&quot;&gt;MemRead&lt;/span&gt;" style="text;strokeColor=none;align=left;fillColor=none;html=1;verticalAlign=middle;whiteSpace=wrap;rounded=0;fontSize=11;" parent="1" vertex="1">
          <mxGeometry x="813" y="-213.5" width="57" height="14" as="geometry" />
        </mxCell>
        <mxCell id="Msp46878IymJfc1_vW69-72" value="&lt;span style=&quot;color: rgb(0, 102, 204);&quot;&gt;MemtoReg&lt;/span&gt;" style="text;strokeColor=none;align=left;fillColor=none;html=1;verticalAlign=middle;whiteSpace=wrap;rounded=0;fontSize=11;" parent="1" vertex="1">
          <mxGeometry x="813" y="-199.5" width="57" height="14" as="geometry" />
        </mxCell>
        <mxCell id="Msp46878IymJfc1_vW69-73" value="&lt;span style=&quot;color: rgb(0, 102, 204);&quot;&gt;ALUOp&lt;/span&gt;" style="text;strokeColor=none;align=left;fillColor=none;html=1;verticalAlign=middle;whiteSpace=wrap;rounded=0;fontSize=11;" parent="1" vertex="1">
          <mxGeometry x="813" y="-184" width="46" height="14" as="geometry" />
        </mxCell>
        <mxCell id="Msp46878IymJfc1_vW69-74" value="&lt;span style=&quot;color: rgb(0, 102, 204);&quot;&gt;MemWrite&lt;/span&gt;" style="text;strokeColor=none;align=left;fillColor=none;html=1;verticalAlign=middle;whiteSpace=wrap;rounded=0;fontSize=11;" parent="1" vertex="1">
          <mxGeometry x="813" y="-167.75" width="46" height="14" as="geometry" />
        </mxCell>
        <mxCell id="Msp46878IymJfc1_vW69-75" value="&lt;span style=&quot;color: rgb(0, 102, 204);&quot;&gt;ALUSrc&lt;/span&gt;" style="text;strokeColor=none;align=left;fillColor=none;html=1;verticalAlign=middle;whiteSpace=wrap;rounded=0;fontSize=11;" parent="1" vertex="1">
          <mxGeometry x="813" y="-152" width="46" height="14" as="geometry" />
        </mxCell>
        <mxCell id="Msp46878IymJfc1_vW69-76" value="&lt;span style=&quot;color: rgb(0, 102, 204);&quot;&gt;RegWrite&lt;/span&gt;" style="text;strokeColor=none;align=left;fillColor=none;html=1;verticalAlign=middle;whiteSpace=wrap;rounded=0;" parent="1" vertex="1">
          <mxGeometry x="813" y="-135" width="46" height="14" as="geometry" />
        </mxCell>
        <mxCell id="Msp46878IymJfc1_vW69-78" value="Mux" style="strokeWidth=2;html=1;shape=mxgraph.flowchart.terminator;whiteSpace=wrap;" parent="1" vertex="1">
          <mxGeometry x="979" y="22" width="68.93" height="47.65" as="geometry" />
        </mxCell>
        <mxCell id="Msp46878IymJfc1_vW69-79" value="0" style="text;strokeColor=none;fillColor=none;align=left;verticalAlign=middle;spacingLeft=4;spacingRight=4;overflow=hidden;points=[[0,0.5],[1,0.5]];portConstraint=eastwest;rotatable=0;whiteSpace=wrap;html=1;fontSize=10;" parent="1" vertex="1">
          <mxGeometry x="988" y="12.999999999999943" width="20" height="30" as="geometry" />
        </mxCell>
        <mxCell id="Msp46878IymJfc1_vW69-80" value="1" style="text;strokeColor=none;fillColor=none;align=left;verticalAlign=middle;spacingLeft=4;spacingRight=4;overflow=hidden;points=[[0,0.5],[1,0.5]];portConstraint=eastwest;rotatable=0;whiteSpace=wrap;html=1;fontSize=10;" parent="1" vertex="1">
          <mxGeometry x="985.94" y="44" width="25.68" height="27.5" as="geometry" />
        </mxCell>
        <mxCell id="Msp46878IymJfc1_vW69-86" style="rounded=0;orthogonalLoop=1;jettySize=auto;html=1;exitX=1;exitY=0.5;exitDx=0;exitDy=0;exitPerimeter=0;entryX=0.226;entryY=1.002;entryDx=0;entryDy=0;entryPerimeter=0;" parent="1" source="Msp46878IymJfc1_vW69-78" target="Msp46878IymJfc1_vW69-55" edge="1">
          <mxGeometry relative="1" as="geometry" />
        </mxCell>
        <mxCell id="Msp46878IymJfc1_vW69-87" value="" style="edgeStyle=none;orthogonalLoop=1;jettySize=auto;html=1;rounded=0;entryX=0.809;entryY=1.001;entryDx=0;entryDy=0;entryPerimeter=0;exitX=1;exitY=0.294;exitDx=0;exitDy=0;exitPerimeter=0;" parent="1" source="YxsJKSqOHtmqawKpdgPl-26" target="Msp46878IymJfc1_vW69-55" edge="1">
          <mxGeometry width="100" relative="1" as="geometry">
            <mxPoint x="960" y="-30" as="sourcePoint" />
            <mxPoint x="1050" y="-30" as="targetPoint" />
            <Array as="points" />
          </mxGeometry>
        </mxCell>
        <mxCell id="Msp46878IymJfc1_vW69-88" value="" style="edgeStyle=none;orthogonalLoop=1;jettySize=auto;html=1;rounded=0;entryX=-0.089;entryY=0.057;entryDx=0;entryDy=0;entryPerimeter=0;exitX=1.002;exitY=0.616;exitDx=0;exitDy=0;exitPerimeter=0;" parent="1" source="YxsJKSqOHtmqawKpdgPl-26" edge="1">
          <mxGeometry width="100" relative="1" as="geometry">
            <mxPoint x="940" y="30" as="sourcePoint" />
            <mxPoint x="993.84294" y="24.323049999999967" as="targetPoint" />
            <Array as="points" />
          </mxGeometry>
        </mxCell>
        <mxCell id="Msp46878IymJfc1_vW69-89" value="" style="edgeStyle=none;orthogonalLoop=1;jettySize=auto;html=1;rounded=0;endArrow=classic;startFill=1;startArrow=oval;endFill=1;entryX=1.035;entryY=0.542;entryDx=0;entryDy=0;entryPerimeter=0;" parent="1" target="YxsJKSqOHtmqawKpdgPl-4" edge="1">
          <mxGeometry width="100" relative="1" as="geometry">
            <mxPoint x="934" y="25" as="sourcePoint" />
            <mxPoint x="610" y="110" as="targetPoint" />
            <Array as="points">
              <mxPoint x="934" y="110" />
            </Array>
          </mxGeometry>
        </mxCell>
        <mxCell id="Msp46878IymJfc1_vW69-90" value="" style="edgeStyle=none;orthogonalLoop=1;jettySize=auto;html=1;rounded=0;entryX=-0.045;entryY=0.996;entryDx=0;entryDy=0;entryPerimeter=0;startArrow=oval;startFill=1;" parent="1" edge="1">
          <mxGeometry width="100" relative="1" as="geometry">
            <mxPoint x="970" y="70" as="sourcePoint" />
            <mxPoint x="994.7907" y="70.00540000000001" as="targetPoint" />
            <Array as="points" />
          </mxGeometry>
        </mxCell>
        <mxCell id="Msp46878IymJfc1_vW69-91" value="" style="verticalLabelPosition=bottom;shadow=0;dashed=0;align=center;html=1;verticalAlign=top;shape=mxgraph.electrical.logic_gates.logic_gate;operation=and;strokeColor=#0066CC;" parent="1" vertex="1">
          <mxGeometry x="1165.44" y="-250" width="48.18" height="38.5" as="geometry" />
        </mxCell>
        <mxCell id="Msp46878IymJfc1_vW69-92" style="rounded=0;orthogonalLoop=1;jettySize=auto;html=1;exitX=1;exitY=0.5;exitDx=0;exitDy=0;exitPerimeter=0;entryX=0.5;entryY=1;entryDx=0;entryDy=0;entryPerimeter=0;endArrow=none;startFill=0;strokeColor=#0066CC;edgeStyle=orthogonalEdgeStyle;" parent="1" source="Msp46878IymJfc1_vW69-91" target="YxsJKSqOHtmqawKpdgPl-23" edge="1">
          <mxGeometry relative="1" as="geometry" />
        </mxCell>
        <mxCell id="Msp46878IymJfc1_vW69-94" value="" style="edgeStyle=none;orthogonalLoop=1;jettySize=auto;html=1;rounded=0;exitX=0.708;exitY=0.001;exitDx=0;exitDy=0;exitPerimeter=0;endArrow=none;startFill=0;strokeColor=#0066CC;entryX=0;entryY=0.75;entryDx=0;entryDy=0;entryPerimeter=0;" parent="1" source="Msp46878IymJfc1_vW69-55" target="Msp46878IymJfc1_vW69-91" edge="1">
          <mxGeometry width="100" relative="1" as="geometry">
            <mxPoint x="1080" y="-70" as="sourcePoint" />
            <mxPoint x="1160" y="-200" as="targetPoint" />
            <Array as="points">
              <mxPoint x="1160" y="-17" />
              <mxPoint x="1160" y="-221" />
            </Array>
          </mxGeometry>
        </mxCell>
        <mxCell id="Msp46878IymJfc1_vW69-98" value="" style="edgeStyle=orthogonalEdgeStyle;orthogonalLoop=1;jettySize=auto;html=1;rounded=0;exitX=0.352;exitY=0.001;exitDx=0;exitDy=0;exitPerimeter=0;entryX=0.454;entryY=0.994;entryDx=0;entryDy=0;entryPerimeter=0;" parent="1" source="Msp46878IymJfc1_vW69-55" target="0cZEOThnQ55FHqdMDeUB-24" edge="1">
          <mxGeometry width="100" relative="1" as="geometry">
            <mxPoint x="1140" y="30" as="sourcePoint" />
            <mxPoint x="470" y="40" as="targetPoint" />
            <Array as="points">
              <mxPoint x="1157" y="30" />
              <mxPoint x="1157" y="400" />
              <mxPoint x="425" y="400" />
              <mxPoint x="425" y="37" />
            </Array>
          </mxGeometry>
        </mxCell>
        <mxCell id="Msp46878IymJfc1_vW69-113" style="edgeStyle=orthogonalEdgeStyle;rounded=0;orthogonalLoop=1;jettySize=auto;html=1;exitX=0.5;exitY=1;exitDx=0;exitDy=0;exitPerimeter=0;entryX=-0.003;entryY=0.903;entryDx=0;entryDy=0;entryPerimeter=0;" parent="1" source="Msp46878IymJfc1_vW69-99" target="YxsJKSqOHtmqawKpdgPl-26" edge="1">
          <mxGeometry relative="1" as="geometry">
            <mxPoint x="760" y="73" as="targetPoint" />
            <Array as="points">
              <mxPoint x="1390" y="52" />
              <mxPoint x="1390" y="270" />
              <mxPoint x="760" y="270" />
              <mxPoint x="760" y="74" />
            </Array>
          </mxGeometry>
        </mxCell>
        <mxCell id="0cZEOThnQ55FHqdMDeUB-18" style="rounded=0;orthogonalLoop=1;jettySize=auto;html=1;endArrow=oval;endFill=1;startArrow=classic;startFill=1;exitX=0.083;exitY=0.164;exitDx=0;exitDy=0;exitPerimeter=0;" edge="1" parent="1" source="Msp46878IymJfc1_vW69-99">
          <mxGeometry relative="1" as="geometry">
            <mxPoint x="1157" y="30" as="targetPoint" />
            <mxPoint x="1310" y="120" as="sourcePoint" />
          </mxGeometry>
        </mxCell>
        <mxCell id="Msp46878IymJfc1_vW69-99" value="Mux" style="strokeWidth=2;html=1;shape=mxgraph.flowchart.terminator;whiteSpace=wrap;" parent="1" vertex="1">
          <mxGeometry x="1310.81" y="19.189999999999998" width="68.93" height="65.43" as="geometry" />
        </mxCell>
        <mxCell id="Msp46878IymJfc1_vW69-111" value="Instruction [30, 14-12]" style="text;html=1;align=left;verticalAlign=middle;resizable=0;points=[];autosize=1;strokeColor=none;fillColor=none;" parent="1" vertex="1">
          <mxGeometry x="783" y="215" width="140" height="30" as="geometry" />
        </mxCell>
        <mxCell id="92_9P5D2tLMXzTQtMV0v-1" value="&lt;span style=&quot;color: rgb(0, 102, 204);&quot;&gt;&lt;font style=&quot;font-size: 11px;&quot;&gt;AND&lt;/font&gt;&lt;/span&gt;" style="text;html=1;align=center;verticalAlign=middle;resizable=0;points=[];autosize=1;strokeColor=none;fillColor=none;" parent="1" vertex="1">
          <mxGeometry x="1163.62" y="-245.75" width="50" height="30" as="geometry" />
        </mxCell>
        <mxCell id="0cZEOThnQ55FHqdMDeUB-4" value="&lt;font&gt;Address&lt;/font&gt;" style="text;html=1;align=left;verticalAlign=middle;whiteSpace=wrap;rounded=0;fontSize=13;" vertex="1" parent="1">
          <mxGeometry x="490" y="-38" width="60" height="30" as="geometry" />
        </mxCell>
        <mxCell id="0cZEOThnQ55FHqdMDeUB-5" value="Instruction" style="text;html=1;align=left;verticalAlign=middle;whiteSpace=wrap;rounded=0;fontSize=13;" vertex="1" parent="1">
          <mxGeometry x="535" y="-8" width="60" height="30" as="geometry" />
        </mxCell>
        <mxCell id="0cZEOThnQ55FHqdMDeUB-6" value="&lt;font&gt;Write data&lt;/font&gt;" style="text;html=1;align=left;verticalAlign=middle;whiteSpace=wrap;rounded=0;fontSize=13;" vertex="1" parent="1">
          <mxGeometry x="535" y="91" width="70" height="30" as="geometry" />
        </mxCell>
        <mxCell id="0cZEOThnQ55FHqdMDeUB-20" value="Read data" style="text;html=1;align=left;verticalAlign=middle;whiteSpace=wrap;rounded=0;fontSize=13;" vertex="1" parent="1">
          <mxGeometry x="533" y="156" width="70" height="30" as="geometry" />
        </mxCell>
        <mxCell id="0cZEOThnQ55FHqdMDeUB-21" style="edgeStyle=orthogonalEdgeStyle;rounded=0;orthogonalLoop=1;jettySize=auto;html=1;entryX=0.022;entryY=0.718;entryDx=0;entryDy=0;entryPerimeter=0;exitX=1;exitY=0.75;exitDx=0;exitDy=0;" edge="1" parent="1" source="YxsJKSqOHtmqawKpdgPl-4" target="Msp46878IymJfc1_vW69-99">
          <mxGeometry relative="1" as="geometry">
            <mxPoint x="620" y="290" as="sourcePoint" />
            <mxPoint x="1300" y="40" as="targetPoint" />
            <Array as="points">
              <mxPoint x="620" y="173" />
              <mxPoint x="620" y="320" />
              <mxPoint x="1250" y="320" />
              <mxPoint x="1250" y="66" />
            </Array>
          </mxGeometry>
        </mxCell>
        <mxCell id="0cZEOThnQ55FHqdMDeUB-22" value="0" style="text;html=1;align=center;verticalAlign=middle;resizable=0;points=[];autosize=1;strokeColor=none;fillColor=none;" vertex="1" parent="1">
          <mxGeometry x="1311" y="17" width="30" height="30" as="geometry" />
        </mxCell>
        <mxCell id="0cZEOThnQ55FHqdMDeUB-23" value="1" style="text;html=1;align=center;verticalAlign=middle;resizable=0;points=[];autosize=1;strokeColor=none;fillColor=none;" vertex="1" parent="1">
          <mxGeometry x="1311" y="53" width="30" height="30" as="geometry" />
        </mxCell>
        <mxCell id="0cZEOThnQ55FHqdMDeUB-24" value="Mux" style="strokeWidth=2;html=1;shape=mxgraph.flowchart.terminator;whiteSpace=wrap;" vertex="1" parent="1">
          <mxGeometry x="394" y="-54.01999999999998" width="68.93" height="65.43" as="geometry" />
        </mxCell>
        <mxCell id="0cZEOThnQ55FHqdMDeUB-25" value="0" style="text;html=1;align=center;verticalAlign=middle;resizable=0;points=[];autosize=1;strokeColor=none;fillColor=none;" vertex="1" parent="1">
          <mxGeometry x="392.00000000000006" y="-56" width="30" height="30" as="geometry" />
        </mxCell>
        <mxCell id="0cZEOThnQ55FHqdMDeUB-26" value="1" style="text;html=1;align=center;verticalAlign=middle;resizable=0;points=[];autosize=1;strokeColor=none;fillColor=none;" vertex="1" parent="1">
          <mxGeometry x="394.00000000000006" y="-19.180000000000064" width="30" height="30" as="geometry" />
        </mxCell>
        <mxCell id="0cZEOThnQ55FHqdMDeUB-28" style="rounded=0;orthogonalLoop=1;jettySize=auto;html=1;entryX=0.009;entryY=0.357;entryDx=0;entryDy=0;entryPerimeter=0;" edge="1" parent="1" source="_d6EgIDGCibsYGr0F3GB-4" target="0cZEOThnQ55FHqdMDeUB-24">
          <mxGeometry relative="1" as="geometry" />
        </mxCell>
        <mxCell id="0cZEOThnQ55FHqdMDeUB-30" style="edgeStyle=orthogonalEdgeStyle;rounded=0;orthogonalLoop=1;jettySize=auto;html=1;entryX=-0.023;entryY=0.124;entryDx=0;entryDy=0;entryPerimeter=0;" edge="1" parent="1" source="0cZEOThnQ55FHqdMDeUB-24" target="YxsJKSqOHtmqawKpdgPl-4">
          <mxGeometry relative="1" as="geometry" />
        </mxCell>
      </root>
    </mxGraphModel>
  </diagram>
  <diagram id="U7wuH2wpvmcuZC0Nmjry" name="Page-2">
    <mxGraphModel dx="1002" dy="686" grid="1" gridSize="10" guides="1" tooltips="1" connect="1" arrows="1" fold="1" page="1" pageScale="1" pageWidth="850" pageHeight="1100" math="0" shadow="0">
      <root>
        <mxCell id="0" />
        <mxCell id="1" parent="0" />
      </root>
    </mxGraphModel>
  </diagram>
</mxfile>
